<svg xmlns="http://www.w3.org/2000/svg" xmlns:xlink="http://www.w3.org/1999/xlink" width="789.662" height="789.662" viewBox="0 0 789.662 789.662"><defs><style>.a{mix-blend-mode:multiply;isolation:isolate;fill:url(#a);}</style><linearGradient id="a" x1="0.5" x2="0.5" y2="1" gradientUnits="objectBoundingBox"><stop offset="0" stop-color="#3cdaff"/><stop offset="1" stop-color="#00408b"/></linearGradient></defs><path class="a" d="M398.637,793.469a140.224,140.224,0,0,1-52.682-10.251A139.3,139.3,0,0,1,321.6,770.4a141.026,141.026,0,0,1-21.962-17.94L44.811,497.633a141.042,141.042,0,0,1-17.94-21.962,139.236,139.236,0,0,1-20.5-50.294,140.409,140.409,0,0,1,7.688-79.422A139.283,139.283,0,0,1,26.871,321.6a141.028,141.028,0,0,1,17.94-21.962L299.642,44.812A141.03,141.03,0,0,1,321.6,26.872,139.231,139.231,0,0,1,371.9,6.369a140.407,140.407,0,0,1,79.421,7.689A139.3,139.3,0,0,1,475.67,26.872a141.034,141.034,0,0,1,21.962,17.94l254.83,254.83A141.027,141.027,0,0,1,770.4,321.6a139.236,139.236,0,0,1,20.5,50.294,140.408,140.408,0,0,1-7.689,79.422A139.291,139.291,0,0,1,770.4,475.67a141.042,141.042,0,0,1-17.94,21.962l-254.83,254.83A141.03,141.03,0,0,1,475.67,770.4a139.233,139.233,0,0,1-50.294,20.5A141.016,141.016,0,0,1,398.637,793.469Zm0-594.549a63.105,63.105,0,0,0-23.707,4.613,62.6,62.6,0,0,0-20.841,13.839L217.373,354.09a62.706,62.706,0,0,0-17.3,32.515,63.183,63.183,0,0,0,3.46,35.739,62.607,62.607,0,0,0,13.839,20.841L354.09,579.9A62.706,62.706,0,0,0,386.6,597.2a63.182,63.182,0,0,0,35.74-3.46A62.606,62.606,0,0,0,443.185,579.9L579.9,443.185a62.7,62.7,0,0,0,17.3-32.515,63.187,63.187,0,0,0-3.46-35.739A62.605,62.605,0,0,0,579.9,354.09L443.185,217.373a62.705,62.705,0,0,0-32.515-17.3A63.444,63.444,0,0,0,398.637,198.92Z" transform="translate(-3.806 -3.806)"/></svg>