<svg xmlns="http://www.w3.org/2000/svg" xmlns:xlink="http://www.w3.org/1999/xlink" width="207.777" height="207.777" viewBox="0 0 207.777 207.777">
  <defs>
    <style>
      .cls-1 {
        fill: url(#linear-gradient);
      }
      .cls-1:hover {
        fill: black
      }

      .cls-2 {
        fill: #fff;
      }

      .cls-3 {
        filter: url(#Subtraction_12);
      }
    </style>
    <linearGradient id="linear-gradient" x1="0.5" x2="0.5" y2="1" gradientUnits="objectBoundingBox">
      <stop offset="0" stop-color="#167da3"/>
      <stop offset="1" stop-color="#085977"/>
    </linearGradient>
    <filter id="Subtraction_12" x="0" y="0" width="207.777" height="207.777" filterUnits="userSpaceOnUse">
      <feOffset dy="3" input="SourceAlpha"/>
      <feGaussianBlur stdDeviation="3" result="blur"/>
      <feFlood flood-opacity="0.161"/>
      <feComposite operator="in" in2="blur"/>
      <feComposite in="SourceGraphic"/>
    </filter>
  </defs>
  <g id="Group_38" data-name="Group 38" transform="translate(-392 -2740.611)">
    <g class="cls-3" transform="matrix(1, 0, 0, 1, 392, 2740.61)">
      <path id="Subtraction_12-2" data-name="Subtraction 12" class="cls-1" d="M2232.1,14.1h.193a67,67,0,0,1,67,67V81.3a67,67,0,0,1-67,67h-.193a67,67,0,0,1-67-67V81.1A67,67,0,0,1,2232.1,14.1Z" transform="translate(-1531.93 1621.88) rotate(-45)"/>
    </g>
    <path id="Subtraction_16" data-name="Subtraction 16" class="cls-2" d="M2177.129,75.178h0a5.991,5.991,0,0,1-5.524-3.656L2158.84,41.45l4.4.646a47.489,47.489,0,0,0,6.866.4c.665,0,1.365-.007,2.142-.021l1.688-.031,10.1,23.8a6,6,0,0,1-3.178,7.868l-1.391.59a5.965,5.965,0,0,1-2.342.478Zm-10.318-27.746,9.4,22.136a1,1,0,0,0,.922.61h0a.978.978,0,0,0,.389-.08l1.39-.59a1,1,0,0,0,.53-1.311l-8.787-20.7h-.542C2168.918,47.5,2167.826,47.476,2166.811,47.431Z" transform="translate(-1696.137 2806.287)"/>
    <path id="Path_8" data-name="Path 8" class="cls-2" d="M-1704.133,2289.945a2.5,2.5,0,0,1,.677.094,2.5,2.5,0,0,1,1.823,2.406v62.271a2.505,2.505,0,0,1-2.277,2.5,2.492,2.492,0,0,1-2.68-2.038,23.779,23.779,0,0,0-3.495-8,16.775,16.775,0,0,0-14.6-7.571c-2.623,0-5.265.089-7.82.176-2.508.085-4.877.165-7.19.165-5,0-10.671-.333-14.895-2.8a12.541,12.541,0,0,1-5-5.337,18.89,18.89,0,0,1-1.717-8.511,15.428,15.428,0,0,1,2.284-8.516,14.344,14.344,0,0,1,5.916-5.076c3.783-1.842,8.723-2.7,15.547-2.7,2.791,0,5.509.14,7.906.264,1.93.1,3.6.186,4.967.186a10.947,10.947,0,0,0,5.93-2.277,35.2,35.2,0,0,0,6.131-5.586,66.279,66.279,0,0,0,6.354-8.443A2.5,2.5,0,0,1-1704.133,2289.945Zm-2.5,53.471v-43.172c-.68.849-1.419,1.731-2.209,2.616-5.675,6.362-11,9.587-15.839,9.587-1.5,0-3.308-.093-5.224-.192-2.337-.121-4.986-.257-7.649-.257-5.955,0-10.325.719-13.358,2.2-3.677,1.791-5.389,4.681-5.389,9.1,0,6.321,2.42,8.468,4.241,9.533a14.813,14.813,0,0,0,5.189,1.67,46.077,46.077,0,0,0,7.181.45c2.228,0,4.556-.079,7.021-.162,2.6-.088,5.281-.178,7.989-.178A21.705,21.705,0,0,1-1706.633,2343.415Z" transform="translate(2213.664 513.843)"/>
    <path id="Line_5" data-name="Line 5" class="cls-2" d="M0,9.869A2.5,2.5,0,0,1-2.08,8.756a2.5,2.5,0,0,1,.693-3.467L9.667-2.08a2.5,2.5,0,0,1,3.467.693A2.5,2.5,0,0,1,12.44,2.08L1.387,9.449A2.489,2.489,0,0,1,0,9.869Z" transform="translate(521.554 2816.181)"/>
    <path id="Line_6" data-name="Line 6" class="cls-2" d="M11.051,9.869a2.488,2.488,0,0,1-1.384-.42L-1.387,2.08A2.5,2.5,0,0,1-2.08-1.387,2.5,2.5,0,0,1,1.387-2.08L12.44,5.289a2.5,2.5,0,0,1-1.389,4.58Z" transform="translate(521.554 2848.114)"/>
    <path id="Line_7" data-name="Line 7" class="cls-2" d="M12.282,2.5H0A2.5,2.5,0,0,1-2.5,0,2.5,2.5,0,0,1,0-2.5H12.282a2.5,2.5,0,0,1,2.5,2.5A2.5,2.5,0,0,1,12.282,2.5Z" transform="translate(521.554 2837.06)"/>
  </g>
</svg>
